<svg xmlns="http://www.w3.org/2000/svg" viewBox="0 0 2700 420" width="2700" height="420"><title>Logo_line</title><style>
		.s0 { fill: #000000;stroke: #000000;paint-order:stroke fill markers;stroke-linejoin: round;stroke-width: 2 } 
		.s1 { fill: #000000 } 
	</style><g id="Folder 1"><path id="Cake" fill-rule="evenodd" class="s0" d="m1461.4 269.2c1.3-5.3 4.9-9.1 8.6-12.9 15.7-17.5 169.9-182 176.1-188.7 0.7-0.9 1.4-2.5 1.1-3.5-2-7-0.4-23.1 8.8-33.5 5.1-5.6 14.2-13.1 25.7-12 6.7 0.7 22.3 5.1 26.8 28.4 0.6-0.3 1-0.5 1.5-0.7 9.3-5.9 19.4-7.5 29.9-4.5 9.8 2.8 15.8 10 18.5 19.7 1.4 4.5 0.5 13.5 0.5 14.3 13.9-3.9 24-2 34.3 9 8.9 10.5 10.1 21.4 4.9 34.4 12 1.1 21.4 6.4 27 16.3 5.8 10.3 5.7 22.3-1.2 32.4 1 0.4 2 0.6 2.9 1 9.8 4.2 18.1 9.1 22.8 20.2 7.6 20.9-5.2 35.1-8.7 38.1 2.8 1.4 5.6 3.4 7.9 5.6 10.7 10.2 15.4 35.9-0.4 49-9.6 8.1-21.2 8.3-32.9 7.2-2.6-0.3-5.2-1-8.3-1.7 0.4 1.2 0.7 1.8 0.9 2.4 3.3 7.1 7.5 29.8 6.8 48.6-0.6 15.5-2.9 34.8-9.5 52.2-1.7 4.2-3.2 8.3-8.5 9.5 0.3 0-1.4 0-2.2 0q-9.1-0.2-18.1-0.4-9-0.2-17.9-0.4-8.2-0.2-16.3-0.4-9-0.2-18.1-0.4-8.5-0.2-17.1-0.4-8.6-0.3-17.3-0.5-8.7-0.2-17.4-0.4-9.3-0.2-18.6-0.4-8-0.2-16-0.4-9.2-0.2-18.3-0.4-8.3-0.2-16.5-0.4-8.7-0.2-17.5-0.4-8.4-0.2-16.9-0.4-8.6-0.2-17.2-0.4-8.6-0.2-17.1-0.4c-5.9-0.2-11.8-0.3-17.7-0.4-10.2-0.2-20.4-0.3-30.6-0.5-3 0-6.1-0.1-9.1-0.4-1.2-0.2-2.5-0.9-3.5-1.7-2.2-1.5-2.6-4-2.6-6.4-0.1-2.8 0.3-5.7 0.3-8.5q0.1-6.2 0-12.5c0-0.9-0.3-2-0.8-2.7-4.8-6.9-6.6-14.6-6.9-22.7-0.1-2.4 0.2-4.7 0.4-7.1 0.4-5.6 2-10.8 4.8-15.7 0.6-1.1 0.7-2.4 0.8-3.6 0.1-1-0.3-2-0.3-3-0.2-8.2-0.3-16.4-0.5-24.6 0-1-0.6-2.2-1.3-2.9-5.5-2.1-6-7.6-6-12zm333.5 3.8c-1.3-28.9-7.7-80-39.3-128.1-31.6-45.9-74-62.5-97.7-70.5-1.1-0.4-1.8-0.1-2.6 0.7-14.8 15.6-171.4 184.2-179.6 192.7-3 3.3 1 3.5 1 3.5 0 0 16.3 0.6 24.4 0.8 7.6 0.2 15.2 0.3 22.8 0.4q10.5 0.2 21 0.4 11.4 0.2 22.8 0.4 10.4 0.2 20.9 0.4 11.5 0.3 23 0.5 10.6 0.2 21.2 0.4c8.7 0.1 17.4 0.2 26.1 0.4 5.9 0.1 11.9 0.3 17.9 0.4q11.7 0.2 23.4 0.4 10.2 0.2 20.4 0.4c7.8 0.1 15.7 0.3 23.6 0.4 13.2 0.2 26.5 0.3 39.7 0.4 2.1 0.1 6.2 0.3 6.2 0.3 0 0 5 0.3 4.8-4.3zm-311.8 92.5c0 0 0 9.1 0 13.6-0.1 1.5 0.6 1.7 1.8 1.7 5.5 0.1 11.1 0.3 16.6 0.4q8.4 0.2 16.9 0.4 8.8 0.2 17.7 0.4 8.4 0.2 16.7 0.4 9.1 0.2 18.2 0.4 8.2 0.2 16.5 0.4 9.2 0.2 18.3 0.5 8.2 0.2 16.3 0.4 9.1 0.2 18.2 0.4 8.3 0.2 16.7 0.4 9 0.2 17.9 0.4 8.4 0.2 16.7 0.4 9 0.2 18 0.4 8.3 0.2 16.7 0.4 9 0.2 17.9 0.4c5.7 0.2 11.3 0.3 17 0.4q14 0.3 28.1 0.4c4.2 0.1 4.9-0.4 6-4.5 2.9-7.3 7.4-28.5 7.7-42.1 0.7-24.3-3-39.3-7-48.6-1.3-3.1-3.5-2.8-4.2-2.8q-21-0.7-42.1-1.2c-4.3-0.1-8.5-0.1-12.8 0-2.4 0-4.9 0.2-7.4 0.2-6.8-0.2-13.6-0.5-20.4-0.7q-15.6-0.4-31.2-0.8-10.6-0.2-21.3-0.4-16.9-0.2-33.8-0.4c-7.8-0.1-15.6 0-23.3-0.2-3.9 0-7.7-0.5-11.6-0.6-9.7-0.2-19.5-0.3-29.2-0.4-4.7-0.1-9.5-0.3-14.2-0.4q-12.8-0.3-25.5-0.4c-2.3 0-4.5 0.3-6.7 0.2-5.6-0.1-11.1-0.5-16.7-0.6-4.1-0.1-12.5-0.1-12.5-0.1 0 0-1.7-0.9-1.7 2.6q0 1.6 0 3 0.1 9.5 0 19c0 1.4 0.4 2.1 1.9 2.1 2.7 0 5.3 0.2 8 0.3q15.6 0.4 31.2 0.8 15.3 0.4 30.7 0.9 15.7 0.4 31.4 0.8 7.6 0.2 15.1 0.4 15.9 0.4 31.8 0.8 7.3 0.2 14.7 0.4 16.2 0.4 32.4 0.8 7 0.2 14 0.4c10.8 0.3 21.6 0.6 32.4 0.9 8.8 0.1 17.6 0.2 26.4 0.4 5.3 0.1 9.8 2.1 13 6.7 4.6 6.7 7.2 13.7 6 22-0.6 4.6-1.4 9-3.7 13.1-1.5 2.7-3.1 5.6-6.5 6.5-1.6 0.4-3.3 0.7-4.9 0.7-4.2-0.1-8.3-0.3-12.5-0.4-11-0.2-22-0.3-33-0.4q-17.9-0.2-35.8-0.4-16.8-0.2-33.6-0.4-17.8-0.2-35.6-0.4c-11.5-0.2-23-0.3-34.5-0.4-21.1-0.2-42.2-0.3-63.3-0.5-0.7 0-1.5 0-2.2 0-6.4 0-12.9 0-19.8 0-2.6 0-1.9 1.9-1.9 1.9zm330.2-88.9c0 0 6.4 1.3 14.3 0.8 7.3-0.8 14-4 17.2-11.2 1.9-4.2 1.1-8.5 0.5-12.7-1.4-8.9-11.2-19-22.2-18.3-1.1 0.1-2.2-0.2-3.2-0.5-2.6-0.9-4.3-3.5-4.1-6.1 0.2-3 2.5-5.4 5.8-5.9 3.1-0.4 6-1.1 8.6-2.9 13.2-8.9 8.8-23.9 7.8-25.8-2.5-5-6.7-9.8-12.1-12.7-4.9-2.7-10.8-3-16.2-0.6-0.7 0.3-1.5 0.5-2.3 0.6-3.4 0.5-6.8-1.6-7.6-4.6-0.8-3.2 0.9-6.2 4.3-7.6 0.8-0.3 7.6-4.3 9.9-9.2 1.2-1.4 2.2-3.4 2.5-5.2 1.3-8.8-1.9-15.7-9-20.4-1.8-1.3-3.9-2.4-6.1-2.9-5.2-1-10.9 0.3-15.7 2.7-3.4 1.6-7 0.5-8.7-2.6-1.7-3.1-0.5-6.5 2.9-8.6 1.2-0.8 2.4-1.6 3.4-2.6 4.5-4.2 7.9-12.4 5.5-19.3-1.5-4.3-3-7.5-6.2-10.4-2.5-2.3-6.3-4.7-9.8-5.4-5-1.3-14.2 1.5-18.8 6.7-1.3 1.9-2.9 3.5-5.3 3.7-2.6 0.2-4.6-0.8-5.9-3-1.6-2.6-1.3-5.3 0.6-7.6 4.5-5.9 4.4-12.6 3.2-19.3-1.6-8.2-7.6-12.7-16-12.7-7.1-0.1-13.2 2.2-18.1 7.4-2.1 2.3-4.6 4.3-7 6.3-2.2 1.7-5.1 1.7-7.3 0.2-2.1-1.4-3-4-2.4-6.8 2.6-11-1.7-23-9.2-28-4.6-2.8-12-1.8-16.4 1.2-8.8 6.2-10 14.9-11.2 24.8-0.4 3.3 0.2 3.6 3.4 4.7 23.1 7.6 69.4 24.3 103.5 75.2 35.7 53.4 40.7 106.3 42.5 132.5 0.4 5.7 4.9 6.1 4.9 6.1zm-197.9 49.8q0 0 0-0.1-23.8-0.5-47.6-1.1-16-0.4-32-0.9c-18.5-0.5-36.9-1-55.4-1.5-1.7-0.1-2.4 0.6-2.8 2.1-2.3 7.6-2.5 15.3-0.1 23 0.9 2.9 1.1 3 4.3 3q13.5 0.2 27 0.3 73.6 0.9 147.2 1.8 20.7 0.2 41.5 0.4c8.6 0.1 17.2 0.3 25.9 0.3 10.1 0.1 20.2 0.1 30.4 0.1 1.3 0.1 2-0.4 2.5-1.5 2.1-4.9 2.8-10.1 1.1-15.2-2.2-6.5-3.4-7.2-10.1-7.3-20.1-0.5-40.2-1.1-60.3-1.6q-35.8-0.9-71.6-1.8zm-4-146.6c5.6 4.6 10.2 10 11.6 17.4 0.3 1.6 0.3 3.4 0 5-0.7 2.7-3.2 4.2-6.1 4.2-2.7-0.1-5.1-1.9-5.9-4.6-0.3-1.1-0.3-2.4-0.7-3.6-1.5-4.8-5.1-8-9.4-10.2-2.9-0.8-6.4-0.1-9.2 1.5-2.9 1.7-4.9 4.2-6.4 7.1-0.6 1.3-1.2 2.7-2 4-1.7 3.1-4.9 4.3-7.9 3.1-2.9-1.3-4.6-4.6-3.4-7.8 3.7-10 9.6-15.1 14.9-17.9 11-5.7 22.2-0.1 24.5 1.8zm88.5 19.3c3.4-9 8-15.3 18.4-17.9q2.5-0.5 4.9-0.6 0.6-0.1 1.2-0.1 0.6 0 1.2 0.1 1.2 0 2.4 0.2c3.1 0.5 6 1.4 8.6 2.8 5.2 2.7 8.8 6.7 10.7 10.9 1.2 2.6 2.1 5.5 2.8 8.4q0.2 0.6 0.2 1.3 0 0.1 0 0.3 0 0.1 0 0.3 0 0.3-0.1 0.6-0.1 1.2-0.8 2.2c-0.8 1.4-2.1 2.5-3.8 2.9q-0.6 0.2-1.2 0.2-0.3 0-0.6 0-0.3 0-0.6 0-1.1-0.1-2.1-0.7c-1.4-0.8-2.4-2-3-3.7-0.7-1.9-1.2-3.8-2-5.6-3.3-7.5-12.8-10-19.1-4.8-2.8 2.4-5 4.9-5.6 8.8-0.5 3.2-3.5 5-6.6 4.5-3.1-0.5-5.4-3.5-5.4-7.7 0.1-0.4 0.2-1.4 0.5-2.4zm-31.3 31.3c0.9-2.2 3.5-3.8 6.9-3 3.4 0.8 3.8 4.4 3.8 5.6-1.2 6.5-4.1 11.8-9.7 15.7-5.1 3.7-12.9 4-18.6 0.9-3.9-2.2-6.4-6.2-8.2-11.5-0.9-3-0.9-3.5-1.2-6.1 0.1-3.6 3.7-5.4 5.3-5.3 1.9-0.1 4.4 1.2 5.4 3.8 1.9 5 4.2 9.6 7.3 9.7 3.4 0.1 6.7-2.4 9-9.8zm10.9 1.7q0 0 0 0 0 0 0 0zm0 0q-0.2 0.9-0.2 1.2 0-0.1 0-0.3 0.1-0.4 0.2-0.9z"></path><path id="medkova      bake" class="s1" aria-label="medkova      bake" d="m197 324q-3.9 0-6.8-2.9-3-2.9-3-6.8v-178.8l-59.1 78q-2.9 3.9-7.8 3.9-4.9 0-7.8-3.9l-59.5-78v178.8q0 3.9-2.9 6.8-2.6 2.9-6.8 2.9-3.9 0-6.8-2.9-3-2.9-3-6.8v-207.4q0-3.2 2-5.8 1.9-2.6 4.9-3.6 6.5-2.3 10.7 3.3l69.2 90.9 68.9-90.9q1.9-2.6 4.9-3.3 3.2-1 6.1 0 6.5 2.3 6.5 9.4v207.4q0 3.9-2.9 6.8-2.6 2.9-6.8 2.9zm197.9-103.3h-122.2v84.1h122.2q3.9 0 6.8 3 2.9 2.6 2.9 6.8 0 3.9-2.9 6.8-2.9 2.9-6.8 2.9h-131.9q-4.3 0-7.2-2.9-2.6-2.9-2.6-6.8v-207.3q0-4.3 2.6-6.9 2.9-2.9 7.2-2.9h131.9q3.9 0 6.8 2.9 2.9 2.6 2.9 6.9 0 3.9-2.9 6.8-2.9 2.9-6.8 2.9h-122.2v84.2h122.2q3.9 0 6.8 2.9 2.9 2.6 2.9 6.8 0 3.9-2.9 6.8-2.9 3-6.8 3zm80.9 103.6q-19.2 0-37-6.5-6.5-2.2-6.5-9.1v-195.6q0-6.8 6.5-9.4 17.5-6.2 37.3-6.2 13 0 25.7 2.9 15.6 3.6 29.6 11.7 14.3 7.8 25.6 19.2 11.4 11.4 18.9 26 7.5 14.3 11 29.9 3.6 15.6 2.3 31.8-1.3 16.3-6.8 31.2-7.8 20.8-23.1 37.4-14.9 16.6-35.1 26-11.4 5.2-23.7 8.1-12 2.6-24.7 2.6zm-24.4-204v181.3q11.7 3.2 24.4 3.2 10.4 0 20.5-2.2 10.4-2.3 19.8-6.5 16.6-7.8 28.9-21.5 12.7-13.6 19.2-30.9 4.5-12.3 5.5-25.6 1-13.7-1.9-26.7-2.6-13-9.1-25-6.2-12-15.6-21.5-19.2-19.1-45.9-25.6-5.2-1.3-10.4-1.6-5.2-0.7-10.7-0.7-13 0-24.7 3.3zm323.4 186.5q3.2 2.6 3.5 6.8 0.4 3.9-2.2 6.8-2.6 3.9-7.5 3.9-3.6 0-6.2-2.2l-116-92.3v84.8q0 3.9-2.9 6.8-2.9 2.9-6.8 2.9-4.3 0-7.2-2.9-2.6-2.9-2.6-6.8v-207.3q0-4.3 2.6-6.9 2.9-2.9 7.2-2.9 3.9 0 6.8 2.9 2.9 2.6 2.9 6.9v84.8l116.3-90.4q3.3-2.6 7.2-1.9 3.9 0.6 6.5 3.9 2.6 3.2 1.9 7.1-0.6 3.9-3.9 6.5l-120.5 93.6zm131.6 16.9q-2.6 0-4.2-1.3-31.6-15.6-56.9-40.6-25.4-25.4-41.3-56.9-14.3-28.2-15.6-52-0.6-15.2 3.3-28.2 4.5-15.3 13.6-25.7 12-14 29.6-19.5 9.7-2.6 18.5-2.6 4.6 0 8.8 0.6 4.2 0.4 8.1 1.7 8.8 2.2 16.6 7.1 7.8 4.9 13.6 11.4 3.3 3.6 5.9 7.8 3.2-4.9 6.2-7.8 12-13.3 30.2-18.5 3.9-1.3 8.1-1.7 4.2-0.6 8.8-0.6 8.7 0 18.5 2.6 17.5 5.5 29.6 19.5 9.1 10.4 13.6 25.7 3.9 13.6 2.9 28.2-0.6 12.4-4.5 25.1-3.6 12.6-10.7 26.9-16.3 31.5-41.6 56.9-25 25-56.6 40.6-1.6 1.3-4.5 1.3zm-53-207.3q-6.2 0-12.7 1.6-12 3.9-20.8 13.7-6.5 7.4-9.7 18.2-2.9 10.4-2.3 22.1 1.6 20.4 13.3 44.2 14.3 27.6 36.1 50 21.8 22.1 49.1 36.7 27.6-14.6 49.4-36.7 21.7-22.4 36-50 11.7-23.8 13.4-44.2 0.6-11.7-2.6-22.1-3.3-10.8-9.8-18.2-8.1-9.5-20.5-13.7-7.1-1.6-12.6-1.6-6.8 0-12 1.3-12.4 3.6-20.8 13-8.8 9.7-10.8 22.1-0.6 3.6-3.5 5.8-2.6 2.3-6.2 2.3-3.6 0-6.2-2.3-2.6-2.2-3.2-5.8-2-12.4-10.8-22.1-8.4-9.4-21.1-13-4.9-1.3-11.7-1.3zm283.7 208q-6.8 0-9.1-6.5l-78.3-207.4q-1.6-3.5 0-7.1 1.9-3.9 5.5-5.2 3.6-1.6 7.2 0.3 3.9 1.6 5.5 5.2l69.2 183.3 69.2-183.3q1.6-3.6 5.2-5.2 3.6-1.9 7.2-0.3 3.9 1.3 5.5 5.2 1.9 3.6 0.3 7.1l-78.3 207.4q-2.6 6.5-9.1 6.5zm158.3-221l78.3 207.3q1.3 3.9-0.4 7.5-1.6 3.6-5.5 5.2-1.9 0.6-3.2 0.6-6.9 0-9.1-6.5l-26.3-69.5h-85.8l-26.4 69.5q-1.6 3.9-5.2 5.9-3.5 1.6-7.4 0-3.6-1.6-5.6-5.2-1.6-3.6 0-7.5l78.4-207.3q2.2-6.2 9.1-6.2 2.9 0 5.2 2 2.6 1.6 3.9 4.2zm-44.9 125.1h71.2l-35.4-93.9zm841.3 34.4q0 21.2-12.4 38.1-5.8 8.4-14.3 14.3-8.4 5.8-18.2 8.7-1.3 0.7-2.6 0.7h-99.4q-4.2 0-7.2-2.9-2.6-3-2.6-6.9v-207.3q0-4.2 2.6-6.8 3-2.9 7.2-2.9h99.4q2 0 3.3 0.6 19.1 6.5 30.8 23.7 5.6 8.2 8.5 17.9 3.2 9.4 2.9 19.5-0.6 22.1-14.3 39-5.2 6.8-12.6 12 8.1 5.5 13.9 12.4 7.2 8.4 10.7 18.8 3.9 10.1 4.3 21.1zm-28 26.7q8.5-12 8.5-26.3-0.4-7.5-3-14.7-2.6-7.4-7.4-13-4.6-5.5-11.1-9.1-6.5-3.9-13.6-5.5h-82.6v84.2h88.1q13-4.6 21.1-15.6zm-21.4-172.2h-87.8v84.1h82.3q7.1-1.6 13-5.5 6.1-3.9 10.7-9.4 9.7-12.4 9.7-27.3 0.3-6.9-1.9-13.7-2-6.8-5.9-12.3-7.4-10.7-20.1-15.9zm168.3-14l78.3 207.3q1.3 3.9-0.3 7.5-1.6 3.6-5.5 5.2-2 0.6-3.3 0.6-6.8 0-9.1-6.5l-26.3-69.5h-85.8l-26.3 69.5q-1.6 3.9-5.2 5.9-3.6 1.6-7.5 0-3.6-1.6-5.5-5.2-1.6-3.6 0-7.5l78.3-207.3q2.3-6.2 9.1-6.2 2.9 0 5.2 2 2.6 1.6 3.9 4.2zm-44.8 125.1h71.1l-35.4-93.9zm304.2 78.3q3.2 2.6 3.5 6.8 0.4 3.9-2.2 6.8-2.6 3.9-7.5 3.9-3.6 0-6.2-2.2l-116-92.3v84.8q0 3.9-2.9 6.8-2.9 2.9-6.8 2.9-4.3 0-7.2-2.9-2.6-2.9-2.6-6.8v-207.3q0-4.3 2.6-6.9 2.9-2.9 7.2-2.9 3.9 0 6.8 2.9 2.9 2.6 2.9 6.9v84.8l116.3-90.4q3.3-2.6 7.2-1.9 3.9 0.6 6.5 3.9 2.6 3.2 1.9 7.1-0.6 3.9-3.9 6.5l-120.5 93.6zm187.2-86.1h-122.2v84.2h122.2q3.9 0 6.8 2.9 2.9 2.6 2.9 6.8 0 3.9-2.9 6.9-2.9 2.9-6.8 2.9h-132q-4.2 0-7.1-2.9-2.6-3-2.6-6.9v-207.3q0-4.2 2.6-6.8 2.9-2.9 7.1-2.9h132q3.9 0 6.8 2.9 2.9 2.6 2.9 6.8 0 3.9-2.9 6.8-2.9 3-6.8 3h-122.2v84.1h122.2q3.9 0 6.8 2.9 2.9 2.6 2.9 6.9 0 3.9-2.9 6.8-2.9 2.9-6.8 2.9z"></path></g></svg>